<svg width="29" height="28" viewBox="0 0 29 28" fill="none" xmlns="http://www.w3.org/2000/svg">
<circle cx="14.9453" cy="14" r="14" fill="currentColor"/>
<g clip-path="url(#clip0_10430_7058)">
<path d="M6.94531 11.9574C6.94531 11.1434 7.11586 10.3353 7.45888 9.53488C7.8019 8.7345 8.29221 7.99031 8.93175 7.3062C9.57128 6.62209 10.4104 6.06589 11.4511 5.63953C12.4918 5.21318 13.6449 5 14.9104 5C16.9647 5 18.6507 5.63372 19.9686 6.89922C21.2864 8.16473 21.9453 9.65698 21.9453 11.376C21.9453 13.5853 21.3872 15.4109 20.269 16.8508C19.1507 18.2907 17.7069 19.0116 15.9376 19.0116C15.3562 19.0116 14.8097 18.876 14.3 18.6046C13.7903 18.3333 13.4317 18.0039 13.2244 17.6163L12.4492 20.6783C12.3852 20.9244 12.3 21.1725 12.1973 21.4244C12.0945 21.6764 11.9802 21.9186 11.8581 22.1512C11.736 22.3837 11.612 22.6027 11.4899 22.8101C11.3678 23.0174 11.2438 23.2112 11.1217 23.3915C10.9996 23.5717 10.893 23.7248 10.8019 23.8469C10.7108 23.969 10.6275 24.0756 10.55 24.1667L10.4337 24.3217C10.3949 24.374 10.3426 24.3934 10.2786 24.3798C10.2147 24.3663 10.1759 24.3275 10.1624 24.2636C10.1624 24.25 10.1527 24.1609 10.1333 23.9922C10.1139 23.8236 10.0945 23.6473 10.0752 23.4593C10.0558 23.2713 10.0364 23.0291 10.017 22.7326C9.99764 22.436 9.99182 22.1473 9.99764 21.8702C10.0035 21.593 10.0228 21.2849 10.0558 20.9496C10.0887 20.6143 10.1372 20.3043 10.2011 20.0194C10.3426 19.4128 10.8213 17.3895 11.6352 13.9535C11.5325 13.7461 11.4473 13.4981 11.3833 13.2074C11.3193 12.9167 11.2864 12.6802 11.2864 12.5L11.267 12.2093C11.267 11.3818 11.4763 10.6938 11.8969 10.1453C12.3174 9.5969 12.8232 9.3217 13.4182 9.3217C13.8969 9.3217 14.267 9.48062 14.5325 9.79651C14.798 10.1124 14.9298 10.5097 14.9298 10.9884C14.9298 11.2849 14.8755 11.6512 14.7651 12.0833C14.6546 12.5155 14.5093 13.0136 14.329 13.5756C14.1488 14.1376 14.019 14.593 13.9414 14.9419C13.8116 15.5233 13.9259 16.0271 14.2806 16.4535C14.6352 16.8798 15.11 17.093 15.705 17.093C16.7263 17.093 17.5693 16.5155 18.2341 15.3585C18.8988 14.2015 19.2321 12.8043 19.2321 11.1628C19.2321 9.90891 18.8252 8.88566 18.0112 8.09108C17.1973 7.29651 16.0597 6.89922 14.6004 6.89922C12.9724 6.89922 11.6507 7.42248 10.6372 8.46899C9.62361 9.5155 9.11586 10.7694 9.11586 12.2287C9.11586 13.095 9.36198 13.8236 9.85229 14.4186C10.0209 14.6124 10.0713 14.8198 10.0073 15.0388C9.98213 15.1027 9.94337 15.2519 9.89105 15.4845C9.83872 15.7171 9.79996 15.8663 9.77477 15.9302C9.74958 16.0717 9.68368 16.1667 9.58097 16.2112C9.47826 16.2558 9.36198 16.2539 9.23213 16.2015C8.47051 15.8915 7.8988 15.3585 7.51702 14.6027C7.13523 13.8469 6.94531 12.9651 6.94531 11.9574Z" fill="white"/>
</g>
<defs>
<clipPath id="clip0_10430_7058">
<rect width="18.6667" height="18.6667" fill="white" transform="translate(5.61182 4.66602)"/>
</clipPath>
</defs>
</svg>
